# xmcd
#
# Track frame offsets:
#	150
#	13882
#	28005
#	41962
#	55672
#	68122
#	80947
#	94297
#	108627
#	121137
#	134674
#	148213
#
# Disc length: 2146 seconds
#
# Revision: 0
# Processed by: cddbd v1.5.2PL0 Copyright (c) Steve Scherf et al.
# Submitted via: EasyCDDAExtractor 16.0.6.1
#
DISCID=b908600c
DTITLE=Συλλογικός δίσκος - Μόνος μου περιπλανιέμαι-Π. Ιωαννίδης
DYEAR=1974
DGENRE=Λαϊκή
TTITLE0=Ιωαννίδης Πάνος - Μόνος μου περιπλανιέμαι [Κ. Κάξου-Τ. Βουλγαρίδη]
TTITLE1=Ιωαννίδης Πάνος-Φιλιππιδάκη Τζένη - Αντίο γλυκειά μου αγάπη [Π. Ιωαννί
TTITLE1=δη-Ε. Φυλακτού]
TTITLE2=Ιωαννίδης Πάνος - Για δέστε, πως κατάντησα [Π. Ιωαννίδης-Ε. Φυλακτού]
TTITLE3=Παλιαρούτης Ι. - Ένα καρναβάλι είναι η ζωή [Λ. Μπουρνέλη]
TTITLE4=Ιωαννίδης Πάνος - Θα κάτσω στην παρέα σας [Λ. Μπουρνέλη]
TTITLE5=Ιωαννίδης Πάνος-Φιλιππιδάκη Τζένη - Εγώ και το κορίτσι μου [Λ. Μπουρνέ
TTITLE5=λη-Σ. Τσιλιβερδή]
TTITLE6=Ιωαννίδης Πάνος - Τώρα που έτυχε και συ να πληγωθείς [Τόλη Εσδρά-Ε. Φυ
TTITLE6=λακτού]
TTITLE7=Ιωαννίδης Πάνος - Τραγουδώ για να μην κλαίω [Π. Ιωαννίδη-Σ. Τσιλιβερδή
TTITLE7=]
TTITLE8=Ιωαννίδης Πάνος-Φιλιππιδάκη Τζένη - Είσαι το άστρο της αυγής [Τόλη Εσδ
TTITLE8=ρά-Ε. Κάξου]
TTITLE9=Πορφυρίδης Π. - Κατηγορώ [Σ. Κεφαλόπουλου-Σ. Βαλλιάνου]
TTITLE10=Ιωαννίδης Πάνος - Σκέπτομαι την παντρειά [Λ. Μπουρνέλη-Τόλη Εσδρά]
TTITLE11=Ιωαννίδης Πάνος-Φιλιππιδάκη Τζένη - Γίνε καρδιά μου μάρμαρο [Τόλη Εσδ
TTITLE11=ρά-Ε. Φυλακτού]
EXTD=
EXTT0=
EXTT1=
EXTT2=
EXTT3=
EXTT4=
EXTT5=
EXTT6=
EXTT7=
EXTT8=
EXTT9=
EXTT10=
EXTT11=
PLAYORDER=
